<mxfile host="app.diagrams.net" modified="2021-07-05T06:16:51.902Z" agent="5.0 (Macintosh; Intel Mac OS X 10_15_7) AppleWebKit/537.36 (KHTML, like Gecko) Chrome/91.0.4472.114 Safari/537.36" etag="3u8FCWNdVyVdtxabsKMT" version="14.8.4" type="github" pages="2">
  <diagram id="onZBld13vuEVWpPVaqXc" name="Page-1">
    <mxGraphModel dx="1481" dy="777" grid="0" gridSize="10" guides="1" tooltips="1" connect="1" arrows="1" fold="1" page="1" pageScale="1" pageWidth="850" pageHeight="1100" math="0" shadow="0">
      <root>
        <mxCell id="0" />
        <mxCell id="1" parent="0" />
        <mxCell id="OVSITGwlvOiUhLydqIrI-1" value="Actor" style="shape=umlActor;verticalLabelPosition=bottom;verticalAlign=top;html=1;outlineConnect=0;" vertex="1" parent="1">
          <mxGeometry x="199" y="430" width="30" height="60" as="geometry" />
        </mxCell>
        <mxCell id="OVSITGwlvOiUhLydqIrI-2" value="" style="shape=flexArrow;endArrow=classic;html=1;" edge="1" parent="1">
          <mxGeometry width="50" height="50" relative="1" as="geometry">
            <mxPoint x="333" y="229" as="sourcePoint" />
            <mxPoint x="413" y="229" as="targetPoint" />
          </mxGeometry>
        </mxCell>
        <mxCell id="OVSITGwlvOiUhLydqIrI-3" value="NODE.JS SERVER" style="text;html=1;strokeColor=none;fillColor=none;align=center;verticalAlign=middle;whiteSpace=wrap;rounded=0;" vertex="1" parent="1">
          <mxGeometry x="423" y="219" width="40" height="20" as="geometry" />
        </mxCell>
        <mxCell id="OVSITGwlvOiUhLydqIrI-4" value="" style="shape=flexArrow;endArrow=classic;html=1;" edge="1" parent="1">
          <mxGeometry width="50" height="50" relative="1" as="geometry">
            <mxPoint x="442.5" y="249" as="sourcePoint" />
            <mxPoint x="442.5" y="349" as="targetPoint" />
          </mxGeometry>
        </mxCell>
        <mxCell id="OVSITGwlvOiUhLydqIrI-5" value="&lt;h1&gt;EXPRESS JS Written in MambaScript&lt;/h1&gt;&lt;p&gt;This will be the brain of the application and it will use the express framework with an adapter for the MambaScript Programming Language&lt;/p&gt;" style="text;html=1;strokeColor=none;fillColor=none;spacing=5;spacingTop=-20;whiteSpace=wrap;overflow=hidden;rounded=0;" vertex="1" parent="1">
          <mxGeometry x="373" y="369" width="200" height="210" as="geometry" />
        </mxCell>
        <mxCell id="OVSITGwlvOiUhLydqIrI-6" value="" style="shape=flexArrow;endArrow=classic;startArrow=classic;html=1;" edge="1" parent="1" target="OVSITGwlvOiUhLydqIrI-7">
          <mxGeometry width="100" height="100" relative="1" as="geometry">
            <mxPoint x="543" y="479" as="sourcePoint" />
            <mxPoint x="623" y="319" as="targetPoint" />
          </mxGeometry>
        </mxCell>
        <mxCell id="OVSITGwlvOiUhLydqIrI-7" value="" style="shape=cylinder3;whiteSpace=wrap;html=1;boundedLbl=1;backgroundOutline=1;size=15;" vertex="1" parent="1">
          <mxGeometry x="593" y="279" width="60" height="80" as="geometry" />
        </mxCell>
        <mxCell id="OVSITGwlvOiUhLydqIrI-8" value="MongoDB&lt;br&gt;Atlas&amp;nbsp;&lt;br&gt;Database" style="text;html=1;strokeColor=none;fillColor=none;align=center;verticalAlign=middle;whiteSpace=wrap;rounded=0;" vertex="1" parent="1">
          <mxGeometry x="603" y="319" width="40" height="20" as="geometry" />
        </mxCell>
        <mxCell id="OVSITGwlvOiUhLydqIrI-9" value="CRUD Functionality" style="text;html=1;strokeColor=none;fillColor=none;align=center;verticalAlign=middle;whiteSpace=wrap;rounded=0;" vertex="1" parent="1">
          <mxGeometry x="593" y="419" width="40" height="20" as="geometry" />
        </mxCell>
        <mxCell id="OVSITGwlvOiUhLydqIrI-13" value="User Making Requests" style="text;html=1;strokeColor=none;fillColor=none;align=center;verticalAlign=middle;whiteSpace=wrap;rounded=0;" vertex="1" parent="1">
          <mxGeometry x="194" y="521" width="40" height="20" as="geometry" />
        </mxCell>
        <mxCell id="OVSITGwlvOiUhLydqIrI-14" style="edgeStyle=orthogonalEdgeStyle;rounded=0;orthogonalLoop=1;jettySize=auto;html=1;exitX=0.5;exitY=1;exitDx=0;exitDy=0;" edge="1" parent="1" source="OVSITGwlvOiUhLydqIrI-13" target="OVSITGwlvOiUhLydqIrI-13">
          <mxGeometry relative="1" as="geometry" />
        </mxCell>
        <mxCell id="OVSITGwlvOiUhLydqIrI-20" value="" style="shape=flexArrow;endArrow=classic;html=1;" edge="1" parent="1">
          <mxGeometry width="50" height="50" relative="1" as="geometry">
            <mxPoint x="213" y="415" as="sourcePoint" />
            <mxPoint x="213" y="350" as="targetPoint" />
          </mxGeometry>
        </mxCell>
        <mxCell id="OVSITGwlvOiUhLydqIrI-21" value="Web Application" style="swimlane;" vertex="1" parent="1">
          <mxGeometry x="133" y="79" width="200" height="270" as="geometry" />
        </mxCell>
        <mxCell id="OVSITGwlvOiUhLydqIrI-23" value="&lt;h1 style=&quot;text-align: center&quot;&gt;Progress and Fortune&lt;/h1&gt;&lt;p style=&quot;text-align: center&quot;&gt;&lt;span style=&quot;color: rgb(3 , 47 , 98) ; font-family: , , &amp;#34;sf mono&amp;#34; , &amp;#34;consolas&amp;#34; , &amp;#34;liberation mono&amp;#34; , &amp;#34;menlo&amp;#34; , monospace ; background-color: rgb(255 , 255 , 255)&quot;&gt;The Progress And Fortune Long Term Index is a collection of Tokens That Represent A Long Term Bullish Outlook on Decentralized Finance, Layer 2 ETH Scaling Solutions, and NFTs. This is not financial Advice, but you can use this token to copy my portfolio.&lt;/span&gt;&lt;br&gt;&lt;/p&gt;" style="text;html=1;strokeColor=none;fillColor=none;spacing=5;spacingTop=-20;whiteSpace=wrap;overflow=hidden;rounded=0;" vertex="1" parent="OVSITGwlvOiUhLydqIrI-21">
          <mxGeometry x="5" y="40" width="190" height="220" as="geometry" />
        </mxCell>
      </root>
    </mxGraphModel>
  </diagram>
  <diagram id="sKj2rMX9QKZ9TD9ZR5C5" name="Page-2">
    <mxGraphModel dx="1481" dy="777" grid="0" gridSize="10" guides="0" tooltips="1" connect="1" arrows="1" fold="1" page="1" pageScale="1" pageWidth="850" pageHeight="1100" math="0" shadow="0">
      <root>
        <mxCell id="FXCzu7kFL1WZStfgkbJS-0" />
        <mxCell id="FXCzu7kFL1WZStfgkbJS-1" parent="FXCzu7kFL1WZStfgkbJS-0" />
        <mxCell id="FXCzu7kFL1WZStfgkbJS-6" value="Home Products Resources" style="swimlane;" vertex="1" parent="FXCzu7kFL1WZStfgkbJS-1">
          <mxGeometry x="40" y="30" width="200" height="200" as="geometry" />
        </mxCell>
        <mxCell id="FXCzu7kFL1WZStfgkbJS-7" value="&lt;h1&gt;Progress and Fortune LongTerm Index&lt;/h1&gt;" style="text;html=1;strokeColor=none;fillColor=none;spacing=5;spacingTop=-20;whiteSpace=wrap;overflow=hidden;rounded=0;align=center;" vertex="1" parent="FXCzu7kFL1WZStfgkbJS-6">
          <mxGeometry x="5" y="50" width="190" height="120" as="geometry" />
        </mxCell>
        <mxCell id="FXCzu7kFL1WZStfgkbJS-8" value="Home Products Resources" style="swimlane;" vertex="1" parent="FXCzu7kFL1WZStfgkbJS-1">
          <mxGeometry x="340" y="30" width="200" height="220" as="geometry" />
        </mxCell>
        <mxCell id="FXCzu7kFL1WZStfgkbJS-9" value="&lt;h1&gt;&lt;br&gt;&lt;/h1&gt;" style="text;html=1;strokeColor=none;fillColor=none;spacing=5;spacingTop=-20;whiteSpace=wrap;overflow=hidden;rounded=0;align=center;" vertex="1" parent="FXCzu7kFL1WZStfgkbJS-8">
          <mxGeometry x="5" y="50" width="190" height="120" as="geometry" />
        </mxCell>
        <mxCell id="FXCzu7kFL1WZStfgkbJS-10" value="" style="curved=1;endArrow=classic;html=1;" edge="1" parent="FXCzu7kFL1WZStfgkbJS-8" source="FXCzu7kFL1WZStfgkbJS-9" target="FXCzu7kFL1WZStfgkbJS-9">
          <mxGeometry width="50" height="50" relative="1" as="geometry">
            <mxPoint x="50" y="125" as="sourcePoint" />
            <mxPoint x="100" y="75" as="targetPoint" />
            <Array as="points">
              <mxPoint x="50" y="110" />
              <mxPoint x="150" y="90" />
            </Array>
          </mxGeometry>
        </mxCell>
        <mxCell id="FXCzu7kFL1WZStfgkbJS-12" value="PFLTI" style="text;html=1;strokeColor=none;fillColor=none;align=center;verticalAlign=middle;whiteSpace=wrap;rounded=0;" vertex="1" parent="FXCzu7kFL1WZStfgkbJS-8">
          <mxGeometry x="75" y="40" width="40" height="20" as="geometry" />
        </mxCell>
        <mxCell id="FXCzu7kFL1WZStfgkbJS-13" value="Buy" style="text;html=1;strokeColor=none;fillColor=none;align=center;verticalAlign=middle;whiteSpace=wrap;rounded=0;" vertex="1" parent="FXCzu7kFL1WZStfgkbJS-8">
          <mxGeometry x="10" y="130" width="40" height="20" as="geometry" />
        </mxCell>
        <mxCell id="FXCzu7kFL1WZStfgkbJS-14" value="Sell" style="text;html=1;strokeColor=none;fillColor=none;align=center;verticalAlign=middle;whiteSpace=wrap;rounded=0;" vertex="1" parent="FXCzu7kFL1WZStfgkbJS-8">
          <mxGeometry x="60" y="130" width="40" height="20" as="geometry" />
        </mxCell>
        <mxCell id="FXCzu7kFL1WZStfgkbJS-11" value="Details" style="text;html=1;strokeColor=none;fillColor=none;align=center;verticalAlign=middle;whiteSpace=wrap;rounded=0;" vertex="1" parent="FXCzu7kFL1WZStfgkbJS-8">
          <mxGeometry x="115" y="130" width="40" height="20" as="geometry" />
        </mxCell>
        <mxCell id="FXCzu7kFL1WZStfgkbJS-15" value="&lt;h1&gt;&lt;br&gt;&lt;/h1&gt;&lt;p&gt;Lorem ipsum dolor sit amet, consectetur adipisicing elit, sed do eiusmod tempor incididunt ut.&lt;/p&gt;" style="text;html=1;strokeColor=none;fillColor=none;spacing=5;spacingTop=-20;whiteSpace=wrap;overflow=hidden;rounded=0;" vertex="1" parent="FXCzu7kFL1WZStfgkbJS-8">
          <mxGeometry x="10" y="100" width="190" height="120" as="geometry" />
        </mxCell>
        <mxCell id="FXCzu7kFL1WZStfgkbJS-16" value="Home Products Resources" style="swimlane;" vertex="1" parent="FXCzu7kFL1WZStfgkbJS-1">
          <mxGeometry x="610" y="40" width="200" height="200" as="geometry" />
        </mxCell>
        <mxCell id="FXCzu7kFL1WZStfgkbJS-17" value="&lt;h1&gt;Resource Headline&lt;/h1&gt;&lt;p&gt;Lorem ipsum dolor sit amet, consectetur adipisicing elit, sed do eiusmod tempor incididunt ut labore et dolore magna aliqua.&lt;/p&gt;" style="text;html=1;strokeColor=none;fillColor=none;spacing=5;spacingTop=-20;whiteSpace=wrap;overflow=hidden;rounded=0;" vertex="1" parent="FXCzu7kFL1WZStfgkbJS-16">
          <mxGeometry x="5" y="40" width="190" height="120" as="geometry" />
        </mxCell>
        <mxCell id="FXCzu7kFL1WZStfgkbJS-18" value="" style="shape=flexArrow;endArrow=classic;html=1;" edge="1" parent="FXCzu7kFL1WZStfgkbJS-1">
          <mxGeometry width="50" height="50" relative="1" as="geometry">
            <mxPoint x="140" y="230" as="sourcePoint" />
            <mxPoint x="139.5" y="300" as="targetPoint" />
          </mxGeometry>
        </mxCell>
        <mxCell id="FXCzu7kFL1WZStfgkbJS-19" value="Scroll Down Page" style="text;html=1;strokeColor=none;fillColor=none;align=center;verticalAlign=middle;whiteSpace=wrap;rounded=0;" vertex="1" parent="FXCzu7kFL1WZStfgkbJS-1">
          <mxGeometry x="170" y="260" width="40" height="20" as="geometry" />
        </mxCell>
        <mxCell id="FXCzu7kFL1WZStfgkbJS-20" value="Home Products Resources" style="swimlane;" vertex="1" parent="FXCzu7kFL1WZStfgkbJS-1">
          <mxGeometry x="50" y="310" width="200" height="200" as="geometry" />
        </mxCell>
        <mxCell id="FXCzu7kFL1WZStfgkbJS-24" value="&lt;h1&gt;More Imprtant Info&lt;/h1&gt;&lt;p&gt;Lorem ipsum dolor sit amet, consectetur adipisicing elit, sed do eiusmod tempor incididunt ut labore et dolore magna aliqua.&lt;/p&gt;" style="text;html=1;strokeColor=none;fillColor=none;spacing=5;spacingTop=-20;whiteSpace=wrap;overflow=hidden;rounded=0;align=center;" vertex="1" parent="FXCzu7kFL1WZStfgkbJS-20">
          <mxGeometry x="5" y="50" width="190" height="120" as="geometry" />
        </mxCell>
        <mxCell id="FXCzu7kFL1WZStfgkbJS-26" value="" style="shape=flexArrow;endArrow=classic;html=1;" edge="1" parent="FXCzu7kFL1WZStfgkbJS-1">
          <mxGeometry width="50" height="50" relative="1" as="geometry">
            <mxPoint x="149.5" y="510" as="sourcePoint" />
            <mxPoint x="149.5" y="580" as="targetPoint" />
          </mxGeometry>
        </mxCell>
        <mxCell id="FXCzu7kFL1WZStfgkbJS-27" value="Home Products Resources" style="swimlane;" vertex="1" parent="FXCzu7kFL1WZStfgkbJS-1">
          <mxGeometry x="60" y="580" width="200" height="200" as="geometry" />
        </mxCell>
        <mxCell id="FXCzu7kFL1WZStfgkbJS-28" value="&lt;h1&gt;More Imprtant Info&lt;/h1&gt;&lt;p&gt;&lt;br&gt;&lt;/p&gt;" style="text;html=1;strokeColor=none;fillColor=none;spacing=5;spacingTop=-20;whiteSpace=wrap;overflow=hidden;rounded=0;align=center;" vertex="1" parent="FXCzu7kFL1WZStfgkbJS-27">
          <mxGeometry x="5" y="40" width="190" height="60" as="geometry" />
        </mxCell>
        <mxCell id="FXCzu7kFL1WZStfgkbJS-33" value="" style="whiteSpace=wrap;html=1;aspect=fixed;" vertex="1" parent="FXCzu7kFL1WZStfgkbJS-27">
          <mxGeometry x="5" y="110" width="50" height="50" as="geometry" />
        </mxCell>
        <mxCell id="FXCzu7kFL1WZStfgkbJS-35" value="" style="whiteSpace=wrap;html=1;aspect=fixed;" vertex="1" parent="FXCzu7kFL1WZStfgkbJS-27">
          <mxGeometry x="130" y="110" width="50" height="50" as="geometry" />
        </mxCell>
        <mxCell id="FXCzu7kFL1WZStfgkbJS-34" value="" style="whiteSpace=wrap;html=1;aspect=fixed;" vertex="1" parent="FXCzu7kFL1WZStfgkbJS-27">
          <mxGeometry x="70" y="110" width="50" height="50" as="geometry" />
        </mxCell>
        <mxCell id="FXCzu7kFL1WZStfgkbJS-36" value="Text" style="text;html=1;strokeColor=none;fillColor=none;align=center;verticalAlign=middle;whiteSpace=wrap;rounded=0;" vertex="1" parent="FXCzu7kFL1WZStfgkbJS-27">
          <mxGeometry x="10" y="125" width="40" height="20" as="geometry" />
        </mxCell>
        <mxCell id="FXCzu7kFL1WZStfgkbJS-37" value="Text" style="text;html=1;strokeColor=none;fillColor=none;align=center;verticalAlign=middle;whiteSpace=wrap;rounded=0;" vertex="1" parent="FXCzu7kFL1WZStfgkbJS-27">
          <mxGeometry x="70" y="125" width="40" height="20" as="geometry" />
        </mxCell>
        <mxCell id="FXCzu7kFL1WZStfgkbJS-38" value="Text" style="text;html=1;strokeColor=none;fillColor=none;align=center;verticalAlign=middle;whiteSpace=wrap;rounded=0;" vertex="1" parent="FXCzu7kFL1WZStfgkbJS-27">
          <mxGeometry x="135" y="125" width="40" height="20" as="geometry" />
        </mxCell>
        <mxCell id="FXCzu7kFL1WZStfgkbJS-39" value="" style="endArrow=classic;html=1;" edge="1" parent="FXCzu7kFL1WZStfgkbJS-1" target="FXCzu7kFL1WZStfgkbJS-40">
          <mxGeometry width="50" height="50" relative="1" as="geometry">
            <mxPoint x="240" y="230" as="sourcePoint" />
            <mxPoint x="410" y="370" as="targetPoint" />
          </mxGeometry>
        </mxCell>
        <mxCell id="FXCzu7kFL1WZStfgkbJS-40" value="Home Page" style="text;html=1;strokeColor=none;fillColor=none;align=center;verticalAlign=middle;whiteSpace=wrap;rounded=0;" vertex="1" parent="FXCzu7kFL1WZStfgkbJS-1">
          <mxGeometry x="390" y="360" width="40" height="20" as="geometry" />
        </mxCell>
        <mxCell id="FXCzu7kFL1WZStfgkbJS-41" value="" style="endArrow=classic;html=1;" edge="1" parent="FXCzu7kFL1WZStfgkbJS-1">
          <mxGeometry width="50" height="50" relative="1" as="geometry">
            <mxPoint x="450" y="250" as="sourcePoint" />
            <mxPoint x="540" y="340" as="targetPoint" />
          </mxGeometry>
        </mxCell>
        <mxCell id="FXCzu7kFL1WZStfgkbJS-42" value="Products" style="text;html=1;strokeColor=none;fillColor=none;align=center;verticalAlign=middle;whiteSpace=wrap;rounded=0;" vertex="1" parent="FXCzu7kFL1WZStfgkbJS-1">
          <mxGeometry x="520" y="340" width="40" height="20" as="geometry" />
        </mxCell>
        <mxCell id="FXCzu7kFL1WZStfgkbJS-43" value="" style="endArrow=classic;html=1;" edge="1" parent="FXCzu7kFL1WZStfgkbJS-1" target="FXCzu7kFL1WZStfgkbJS-44">
          <mxGeometry width="50" height="50" relative="1" as="geometry">
            <mxPoint x="710" y="240" as="sourcePoint" />
            <mxPoint x="745" y="315" as="targetPoint" />
          </mxGeometry>
        </mxCell>
        <mxCell id="FXCzu7kFL1WZStfgkbJS-44" value="Resources" style="text;html=1;strokeColor=none;fillColor=none;align=center;verticalAlign=middle;whiteSpace=wrap;rounded=0;" vertex="1" parent="FXCzu7kFL1WZStfgkbJS-1">
          <mxGeometry x="725" y="305" width="40" height="20" as="geometry" />
        </mxCell>
        <mxCell id="FXCzu7kFL1WZStfgkbJS-45" value="" style="whiteSpace=wrap;html=1;aspect=fixed;" vertex="1" parent="FXCzu7kFL1WZStfgkbJS-1">
          <mxGeometry x="680" y="325" width="130" height="130" as="geometry" />
        </mxCell>
        <mxCell id="FXCzu7kFL1WZStfgkbJS-46" value="There will be dozens of Resource Pages&amp;nbsp;" style="text;html=1;strokeColor=none;fillColor=none;align=center;verticalAlign=middle;whiteSpace=wrap;rounded=0;" vertex="1" parent="FXCzu7kFL1WZStfgkbJS-1">
          <mxGeometry x="725" y="375" width="40" height="20" as="geometry" />
        </mxCell>
      </root>
    </mxGraphModel>
  </diagram>
</mxfile>
